<?xml version="1.0" encoding="utf-8"?>
<!-- Generator: Adobe Illustrator 16.0.0, SVG Export Plug-In . SVG Version: 6.00 Build 0)  -->
<!DOCTYPE svg PUBLIC "-//W3C//DTD SVG 1.1//EN" "http://www.w3.org/Graphics/SVG/1.1/DTD/svg11.dtd">
<svg version="1.1" id="Layer_1" xmlns="http://www.w3.org/2000/svg" xmlns:xlink="http://www.w3.org/1999/xlink" x="0px" y="0px"
	 width="128px" height="128px" viewBox="-14 -14 128 128" enable-background="new -14 -14 128 128" xml:space="preserve">
<path fill="#FF9D30" d="M99.987,96.54c0,3.311-2.688,5.998-5.998,5.998H6.012c-3.312,0-5.999-2.688-5.999-5.998V23.559h99.974V96.54
	z"/>
<rect x="4.013" y="3.564" fill="#D97925" width="91.976" height="19.995"/>
<polygon fill="#FF9D30" points="95.988,23.559 87.99,23.559 87.99,11.562 95.988,3.564 "/>
<polygon fill="#FF9D30" points="4.013,23.559 12.011,23.559 12.011,11.562 4.013,3.564 "/>
<polygon fill="#FFB638" points="12.011,11.562 12.011,23.559 0.014,23.559 "/>
<polygon fill="#FFB638" points="87.99,11.562 87.99,23.559 99.987,23.559 "/>
<circle opacity="0.3" enable-background="new    " cx="26.007" cy="43.553" r="4.999"/>
<circle opacity="0.3" enable-background="new    " cx="73.994" cy="43.553" r="4.999"/>
<path fill="none" stroke="#FFFFFF" stroke-width="6" stroke-linecap="round" stroke-miterlimit="10" d="M73.994,43.554
	c0,13.25-10.743,23.993-23.994,23.993c-13.251,0-23.994-10.742-23.994-23.993"/>
</svg>
